<svg xmlns="http://www.w3.org/2000/svg" viewBox="0 0 65.39 65.39"><defs><style>.cls-1{fill:#fff;}</style></defs><g id="Capa_2" data-name="Capa 2"><g id="Capa_1-2" data-name="Capa 1"><path class="cls-1" d="M32.69,5.89c8.73,0,9.77,0,13.22.19,8.86.41,13,4.61,13.4,13.4.16,3.45.19,4.49.19,13.22s0,9.76-.19,13.21c-.41,8.78-4.54,13-13.4,13.4-3.45.16-4.48.19-13.22.19s-9.76,0-13.21-.19c-8.88-.41-13-4.63-13.4-13.41-.16-3.44-.19-4.48-.19-13.21s0-9.76.19-13.21c.41-8.79,4.53-13,13.4-13.4C22.93,5.93,24,5.89,32.69,5.89Zm0-5.89c-8.88,0-10,0-13.47.2C7.34.74.74,7.33.2,19.21,0,22.7,0,23.81,0,32.69s0,10,.2,13.48c.54,11.88,7.13,18.47,19,19,3.49.16,4.6.2,13.48.2s10,0,13.48-.2c11.87-.55,18.48-7.13,19-19,.16-3.48.2-4.6.2-13.48s0-10-.2-13.47C64.66,7.35,58.06.74,46.18.2,42.69,0,41.57,0,32.69,0Zm0,15.91A16.79,16.79,0,1,0,49.48,32.69,16.78,16.78,0,0,0,32.69,15.91Zm0,27.68a10.9,10.9,0,1,1,10.9-10.9A10.89,10.89,0,0,1,32.69,43.59ZM50.15,11.32a3.93,3.93,0,1,0,3.92,3.92A3.93,3.93,0,0,0,50.15,11.32Z"/></g></g></svg>