<svg xmlns="http://www.w3.org/2000/svg" viewBox="0 0 134.12 43.61"><defs><style>.cls-1{fill:#10ccff;}</style></defs><g id="Capa_2" data-name="Capa 2"><g id="Capa_1-2" data-name="Capa 1"><path class="cls-1" d="M11.35.48V4.42H4.26V8h6.31l-.72,4L4.26,12v3.83h7.36v4H0V.48Z"/><path class="cls-1" d="M13.57.48h4.84V15.82h6.81l-.83,4H13.57l.55-2.56V2.49Z"/><path class="cls-1" d="M41.1,1.34a10.34,10.34,0,0,1,3.83,3.74,9.85,9.85,0,0,1,0,10,10.08,10.08,0,0,1-3.72,3.73,10.4,10.4,0,0,1-5.32,1.43,10.06,10.06,0,0,1-5.15-1.43A10.1,10.1,0,0,1,25.72,10a9.26,9.26,0,0,1,1.4-4.91,10.6,10.6,0,0,1,3.82-3.74A10.26,10.26,0,0,1,36,0,10,10,0,0,1,41.1,1.34ZM31.61,6A6.1,6.1,0,0,0,30,10.25a5.92,5.92,0,0,0,.8,3,6,6,0,0,0,2.25,2.23,5.7,5.7,0,0,0,5.86,0,5.88,5.88,0,0,0,2.25-2.23A6.12,6.12,0,0,0,42,10.16a6.05,6.05,0,0,0-2-4.63A5.74,5.74,0,0,0,36,4,5.68,5.68,0,0,0,31.61,6Z"/><path class="cls-1" d="M48.7,19.8V.48h4.81A9,9,0,0,1,58,1.4a5.21,5.21,0,0,1,2,2A5,5,0,0,1,60.69,6a4.68,4.68,0,0,1-1.6,3.45,5.43,5.43,0,0,1,1,8.28c-1.37,1.47-3,2.08-5.69,2.08ZM52.86,8.22h1a4.59,4.59,0,0,0,1.9-.28,1.82,1.82,0,0,0,1-1.74c0-1.46-.8-2-2.85-2h-1Zm0,7.76h1.37a4.82,4.82,0,0,0,2.17-.35,1.94,1.94,0,0,0,1-1.82,1.84,1.84,0,0,0-1-1.76A5.43,5.43,0,0,0,54,11.63H52.86Z"/><path class="cls-1" d="M78.26,1.34a10.31,10.31,0,0,1,3.82,3.74,9.88,9.88,0,0,1,.06,10,10.16,10.16,0,0,1-3.72,3.73,10.44,10.44,0,0,1-5.33,1.43,10.12,10.12,0,0,1-5.15-1.43A10.15,10.15,0,0,1,62.87,10a9.26,9.26,0,0,1,1.4-4.91A10.63,10.63,0,0,1,68.1,1.34,10.21,10.21,0,0,1,73.18,0,10,10,0,0,1,78.26,1.34ZM68.76,6a6.1,6.1,0,0,0-1.57,4.26,5.93,5.93,0,0,0,.81,3,6,6,0,0,0,2.25,2.23,5.7,5.7,0,0,0,5.86,0,6,6,0,0,0,2.25-2.23,6.12,6.12,0,0,0,.81-3.09,6,6,0,0,0-2-4.63A5.87,5.87,0,0,0,68.76,6Z"/><path class="cls-1" d="M100.15,1.34A10.31,10.31,0,0,1,104,5.08a9.88,9.88,0,0,1,.06,10,10.11,10.11,0,0,1-3.73,3.73A10.38,10.38,0,0,1,95,20.28a10.4,10.4,0,0,1-8.87-5.16A10.18,10.18,0,0,1,84.76,10a9.26,9.26,0,0,1,1.4-4.91A10.55,10.55,0,0,1,90,1.34,10.21,10.21,0,0,1,95.07,0,10,10,0,0,1,100.15,1.34ZM90.65,6a6.1,6.1,0,0,0-1.57,4.26,6,6,0,0,0,3.06,5.23,5.7,5.7,0,0,0,5.86,0,6,6,0,0,0,2.25-2.23,6.11,6.11,0,0,0,.8-3.09,6.05,6.05,0,0,0-2-4.63A5.87,5.87,0,0,0,90.65,6Z"/><path class="cls-1" d="M116.59,6.13a9,9,0,0,0-1-1.42A2.35,2.35,0,0,0,113.76,4a2,2,0,0,0-1.57.66,1.81,1.81,0,0,0-.49,1.22c0,.67.64,1.25,1.93,1.73l1.75.66a9.75,9.75,0,0,1,3.37,1.94,4.89,4.89,0,0,1,1.56,3.7,6,6,0,0,1-2.11,4.65,6.89,6.89,0,0,1-4.75,1.74,7,7,0,0,1-4-1.21,7.62,7.62,0,0,1-2.81-4.8l4.21-1.12c0,.13.1.35.17.68.41,1.64,1.24,2.46,2.53,2.46a2.4,2.4,0,0,0,1.9-.82,2.21,2.21,0,0,0,.61-1.54,1.4,1.4,0,0,0-.29-.87,5.16,5.16,0,0,0-2.15-1.23l-1.68-.63c-3-1.14-4.45-2.92-4.45-5.35a5.4,5.4,0,0,1,1.89-4.22A6.66,6.66,0,0,1,113.91,0a6.45,6.45,0,0,1,5,2.22,10.81,10.81,0,0,1,1.2,1.69Z"/><path class="cls-1" d="M134.12.48v4h-4.55V19.8h-4.28V4.46h-4.55v-4Z"/><path class="cls-1" d="M4.9,36.4v6.73H.05l.56-1.35V25.24L.05,23.81H5.38a8.63,8.63,0,0,1,4.23.87,5.62,5.62,0,0,1,2.11,2.11,6.34,6.34,0,0,1,.86,3.29A6.23,6.23,0,0,1,11,34.38c-1.26,1.43-2.9,2-5.62,2Zm0-3.9h.74a2.94,2.94,0,0,0,2.26-.67,2.56,2.56,0,0,0,.55-1.72c0-1.69-.83-2.38-2.81-2.38H4.87Z"/><path class="cls-1" d="M23.86,43.13l-3.75-6.77a.68.68,0,0,1-.2,0l-.81,0h-.47v6.73H14.35V23.81H19.1a9.43,9.43,0,0,1,4.6.93A6,6,0,0,1,25.9,27a6.15,6.15,0,0,1,.86,3.21,5.92,5.92,0,0,1-1.61,4.19,4.94,4.94,0,0,1-.94.81l4.47,8ZM18.61,32.5h.73a4.82,4.82,0,0,0,2.27-.4,2.08,2.08,0,0,0,1-2c0-1.65-1-2.4-3.26-2.4h-.73Z"/><path class="cls-1" d="M41.94,23.81v3.93H34.85v3.63h6.31l-.54,3.94H34.85v3.84h7.36v4H30.59V23.81Z"/><path class="cls-1" d="M53.55,29.45a10.11,10.11,0,0,0-1-1.41,2.35,2.35,0,0,0-1.79-.74,2,2,0,0,0-1.57.67,1.85,1.85,0,0,0-.48,1.22c0,.66.64,1.24,1.93,1.72l1.75.67a9.84,9.84,0,0,1,3.37,1.94,4.92,4.92,0,0,1,1.56,3.69,6,6,0,0,1-2.11,4.66,6.9,6.9,0,0,1-4.76,1.74,7,7,0,0,1-4-1.22,7.61,7.61,0,0,1-2.8-4.8l4.2-1.11a5.1,5.1,0,0,1,.17.67c.41,1.65,1.25,2.47,2.54,2.47a2.38,2.38,0,0,0,1.89-.82A2.21,2.21,0,0,0,53,37.25a1.43,1.43,0,0,0-.28-.86,5.16,5.16,0,0,0-2.15-1.23l-1.69-.64c-3-1.13-4.44-2.91-4.44-5.35A5.39,5.39,0,0,1,46.29,25a6.66,6.66,0,0,1,4.59-1.62,6.4,6.4,0,0,1,5,2.22,10,10,0,0,1,1.21,1.68Z"/><path class="cls-1" d="M71.08,23.81v4H66.54V43.13H62.25V27.78H57.71v-4Z"/><path class="cls-1" d="M76.74,23.81V43.13H72.45V23.81Z"/><path class="cls-1" d="M89.08,32.12H98.7v2a10.14,10.14,0,0,1-1.25,5.22,7.89,7.89,0,0,1-3,3,9.85,9.85,0,0,1-4.92,1.27,10.55,10.55,0,0,1-5.43-1.44,10.08,10.08,0,0,1-3.62-3.63,10,10,0,0,1,0-10.13,10,10,0,0,1,3.7-3.68,10.48,10.48,0,0,1,5.35-1.4,9.66,9.66,0,0,1,4.06.82,14.41,14.41,0,0,1,3.86,2.76l-3,2.84a11.41,11.41,0,0,0-1.82-1.53,5.51,5.51,0,0,0-3.1-.9,5.66,5.66,0,0,0-4.48,2,6.08,6.08,0,0,0-1.57,4.19,6,6,0,0,0,6.1,6.15A4.49,4.49,0,0,0,94.23,36H89.08Z"/><path class="cls-1" d="M105.42,23.81V43.13h-4.29V23.81Z"/><path class="cls-1" d="M123.2,24.67A10.24,10.24,0,0,1,127,28.41a9.87,9.87,0,0,1,.06,10,10.11,10.11,0,0,1-3.72,3.74A10.4,10.4,0,0,1,118,43.61a10.23,10.23,0,0,1-10.22-10.29,9.12,9.12,0,0,1,1.4-4.91A10.44,10.44,0,0,1,113,24.67a10.21,10.21,0,0,1,5.08-1.34A10,10,0,0,1,123.2,24.67Zm-9.5,4.64a6.16,6.16,0,0,0-1.57,4.26,5.87,5.87,0,0,0,.81,3,6,6,0,0,0,2.25,2.24,5.7,5.7,0,0,0,5.86,0,6,6,0,0,0,2.25-2.24,6.28,6.28,0,0,0-1.22-7.71,5.88,5.88,0,0,0-8.38.45Z"/></g></g></svg>