<svg id="Capa_1" data-name="Capa 1" xmlns="http://www.w3.org/2000/svg" viewBox="0 0 45.28 45.49"><defs><style>.cls-1{fill:#fff;}</style></defs><g id="Capa_2" data-name="Capa 2"><g id="Capa_1-2" data-name="Capa 1-2"><path class="cls-1" d="M0,45.49,3.2,33.81A22.51,22.51,0,1,1,12,42.36Zm12.5-7.21a18.67,18.67,0,1,0-5.19-5.06l-1.9,6.91ZM34.09,27.92c-.14-.24-.52-.38-1.08-.66s-3.33-1.64-3.85-1.83-.89-.28-1.27.28-1.46,1.83-1.78,2.21-.66.42-1.22.14a15.26,15.26,0,0,1-4.53-2.8,17.13,17.13,0,0,1-3.14-3.9c-.33-.56,0-.87.25-1.15s.56-.66.84-1a3.42,3.42,0,0,0,.57-.93,1,1,0,0,0,0-1c-.15-.28-1.27-3.06-1.74-4.18s-.92-.95-1.27-1H14.79a2,2,0,0,0-1.5.71,6.28,6.28,0,0,0-2,4.7,10.76,10.76,0,0,0,2.3,5.82c.3.37,4,6.07,9.62,8.51A33.33,33.33,0,0,0,26.42,33a7.75,7.75,0,0,0,3.55.23c1.08-.16,3.33-1.37,3.8-2.68A4.71,4.71,0,0,0,34.09,27.92Z"/></g></g></svg>